<mxfile host="app.diagrams.net" modified="2024-04-15T11:11:50.821Z" agent="Mozilla/5.0 (X11; Linux x86_64) AppleWebKit/537.36 (KHTML, like Gecko) Chrome/113.0.0.0 Safari/537.36 OPR/99.0.0.0" version="24.2.2" etag="q0MnyYbSpH6BXAuhH-A2" type="github">
  <diagram name="Page-1" id="aPLvhB9_F-oQS0IolTUl">
    <mxGraphModel>
      <root>
        <mxCell id="0" />
        <mxCell id="1" parent="0" />
      </root>
    </mxGraphModel>
  </diagram>
</mxfile>
